<svg width="12" height="13" viewBox="0 0 12 13" fill="none" xmlns="http://www.w3.org/2000/svg">
    <path d="M8.25 11.875H3.75C2.1 11.875 1.875 10.975 1.875 9.99999V5.60999C1.875 5.40499 2.045 5.23499 2.25 5.23499C2.455 5.23499 2.625 5.40499 2.625 5.60999V9.99999C2.625 10.87 2.775 11.125 3.75 11.125H8.25C9.225 11.125 9.375 10.87 9.375 9.99999V5.60999C9.375 5.40499 9.545 5.23499 9.75 5.23499C9.955 5.23499 10.125 5.40499 10.125 5.60999V9.99999C10.125 10.975 9.9 11.875 8.25 11.875Z" fill="#697170"/>
    <path d="M9.5 5.875H2.5C1.29 5.875 0.625 5.21 0.625 4V3C0.625 1.79 1.29 1.125 2.5 1.125H9.5C10.71 1.125 11.375 1.79 11.375 3V4C11.375 5.21 10.71 5.875 9.5 5.875ZM2.5 1.875C1.71 1.875 1.375 2.21 1.375 3V4C1.375 4.79 1.71 5.125 2.5 5.125H9.5C10.29 5.125 10.625 4.79 10.625 4V3C10.625 2.21 10.29 1.875 9.5 1.875H2.5Z" fill="#697170"/>
    <path d="M6.90984 7.875H5.08984C4.88484 7.875 4.71484 7.705 4.71484 7.5C4.71484 7.295 4.88484 7.125 5.08984 7.125H6.90984C7.11484 7.125 7.28484 7.295 7.28484 7.5C7.28484 7.705 7.11484 7.875 6.90984 7.875Z" fill="#697170"/>
    </svg>
    