<svg width="32" height="32" viewBox="0 0 32 32" fill="none" xmlns="http://www.w3.org/2000/svg">
    <path d="M0 2C0 0.895431 0.895431 0 2 0H30C31.1046 0 32 0.895431 32 2V28.5141C32 30.0585 30.3239 31.0201 28.9906 30.2407L17.0094 23.2363C16.3858 22.8717 15.6142 22.8717 14.9906 23.2363L3.00939 30.2407C1.67609 31.0201 0 30.0585 0 28.5141V2Z" fill="#ECE806"/>
    <path d="M11.8168 7.72727V15H10.4886L7.32457 10.4226H7.27131V15H5.73366V7.72727H7.0831L10.2223 12.3011H10.2862V7.72727H11.8168ZM15.5446 15.1065C14.9835 15.1065 14.5005 14.9929 14.0957 14.7656C13.6932 14.536 13.3831 14.2116 13.1653 13.7926C12.9475 13.3712 12.8386 12.8729 12.8386 12.2976C12.8386 11.7365 12.9475 11.2441 13.1653 10.8203C13.3831 10.3965 13.6897 10.0663 14.085 9.82955C14.4828 9.5928 14.9492 9.47443 15.4842 9.47443C15.844 9.47443 16.179 9.53243 16.4892 9.64844C16.8017 9.76207 17.0739 9.93371 17.3059 10.1634C17.5403 10.393 17.7226 10.6818 17.8528 11.0298C17.983 11.3755 18.0481 11.7803 18.0481 12.2443V12.6598H13.4423V11.7223H16.6241C16.6241 11.5045 16.5768 11.3116 16.4821 11.1435C16.3874 10.9754 16.256 10.844 16.0879 10.7493C15.9222 10.6522 15.7292 10.6037 15.5091 10.6037C15.2794 10.6037 15.0758 10.657 14.8983 10.7635C14.7231 10.8677 14.5858 11.0085 14.4863 11.1861C14.3869 11.3613 14.336 11.5566 14.3336 11.772V12.6634C14.3336 12.9332 14.3833 13.1664 14.4828 13.3629C14.5846 13.5594 14.7278 13.7109 14.9125 13.8175C15.0971 13.924 15.3161 13.9773 15.5694 13.9773C15.7375 13.9773 15.8914 13.9536 16.0311 13.9062C16.1708 13.8589 16.2903 13.7879 16.3897 13.6932C16.4892 13.5985 16.5649 13.4825 16.617 13.3452L18.0162 13.4375C17.9451 13.7737 17.7995 14.0672 17.5794 14.3182C17.3616 14.5668 17.0798 14.7609 16.7342 14.9006C16.3909 15.0379 15.9944 15.1065 15.5446 15.1065ZM20.0723 15L18.5879 9.54545H20.1184L20.9636 13.2102H21.0133L21.894 9.54545H23.3961L24.291 13.1889H24.3372L25.1681 9.54545H26.6951L25.2143 15H23.6127L22.6752 11.5696H22.6078L21.6703 15H20.0723Z" fill="black"/>
    </svg>
    