<svg width="24" height="24" viewBox="0 0 24 24" fill="none" xmlns="http://www.w3.org/2000/svg">
    <g clip-path="url(#clip0_975_326)">
    <path d="M0 18.3142C0.109415 18.0193 0.0900328 17.7047 0.131923 17.3996C0.450789 15.0777 1.30735 12.9787 2.71537 11.1204C4.72172 8.47195 7.3408 6.7665 10.5651 6.02495C11.2035 5.87841 11.8531 5.79061 12.5071 5.75334C12.6621 5.7445 12.709 5.6946 12.7084 5.53227C12.7015 3.68786 12.7034 1.84346 12.7028 -0.000946045C12.7184 -0.000946045 12.734 -0.000946045 12.7496 -0.000946045C12.7734 0.027478 12.7934 0.0609552 12.8216 0.0843261C16.5091 3.11749 20.198 6.14939 23.8868 9.18065C23.9181 9.20655 23.9419 9.26277 24 9.22739V9.32214C23.8393 9.34614 23.7505 9.47942 23.6386 9.57227C20.0342 12.5416 16.4322 15.5135 12.8297 18.4854C12.8009 18.5088 12.769 18.5277 12.7046 18.572V18.3168C12.7046 16.5741 12.7028 14.8307 12.7078 13.088C12.7078 12.9194 12.6928 12.8461 12.4889 12.8612C10.4094 13.0185 8.48059 13.6508 6.70307 14.7417C4.60043 16.0321 2.94983 17.7679 1.85693 19.997C1.2442 21.247 0.740895 22.5526 0.187568 23.8323C0.163185 23.8891 0.133174 23.9435 0.105664 23.9984C0.00937843 23.9283 0.049393 23.8247 0.0487678 23.7363C0.0468921 22.1749 0.0487678 20.6141 0.0456416 19.0526C0.0456416 18.9636 0.0875319 18.8619 0 18.7861V18.313L0 18.3142ZM1.52431 17.6548C1.6331 17.6352 1.65498 17.5506 1.69874 17.4899C3.16678 15.4466 5.02621 13.8763 7.28453 12.7943C9.39155 11.7849 11.6161 11.3365 13.9457 11.3977C14.1026 11.4021 14.1176 11.4571 14.117 11.5891C14.1126 12.7722 14.1145 13.9553 14.1145 15.1383C14.1145 15.2691 14.1145 15.3992 14.1145 15.5312C14.2077 15.53 14.2414 15.4693 14.2871 15.432C16.7248 13.4247 19.1595 11.4142 21.6016 9.41183C21.7761 9.26908 21.6898 9.21855 21.5785 9.12696C19.1326 7.11707 16.688 5.10591 14.2421 3.09664C14.2096 3.07011 14.1808 3.01769 14.1145 3.05685C14.1145 4.21781 14.1164 5.38383 14.1126 6.54985C14.112 6.74376 14.1996 7.00084 14.0745 7.11328C13.9688 7.20866 13.7194 7.14612 13.5331 7.14612C12.3101 7.14928 11.104 7.29582 9.93862 7.67418C6.29355 8.85788 3.73574 11.2449 2.2627 14.8111C1.88819 15.7182 1.66498 16.6701 1.52431 17.6554V17.6548Z" fill="#242626"/>
    </g>
    <defs>
    <clipPath id="clip0_975_326">
    <rect width="24" height="24" fill="white"/>
    </clipPath>
    </defs>
    </svg>
    